<?xml version="1.0" encoding="UTF-8"?><svg id="Layer_2" xmlns="http://www.w3.org/2000/svg" viewBox="0 0 60.59 74.51"><defs><style>.cls-1,.cls-2{fill:#231f20;}.cls-2,.cls-3,.cls-4,.cls-5{stroke:#231f20;stroke-linecap:round;stroke-linejoin:round;stroke-width:2px;}.cls-3{fill:#f1f2f2;}.cls-4{fill:#efb8c5;}.cls-5{fill:none;}</style></defs><g id="Layer_2-2"><path class="cls-4" d="m5.12,29.03s2.24,4.58.93,7.62-8.45,9.74.81,24.37c9.26,14.63,20.68,15.99,29.3,6.27,8.63-9.72,11.06-18.49,11.06-18.49,0,0,11.6,2.64,12.31-5.3.71-7.93-6.6-9.27-9.49-7.7s.12-19.43.12-19.43l-16.17-5.75-19.83-1.07L5.12,29.03Z"/><path class="cls-2" d="m25.94,21.49s-10.53,5.36-6.62,10.7c3.92,5.35,12.01,4.83,12.72,2.25s-1.84-2.21-1.84-2.21c0,0-7.94,1.96-2.7-6.43s20.41-1.88,20.15,2.72-3.24,10.8-1.83,12.24,3.93-5.36,5.78-5.82,2.68,0,2.68,0c0,0,11.24-23.81-8.49-28.26,0,0-10.08-7.25-22.64-5.37C10.57,3.18.47,9.31,1.02,22.41s5.75,12.91,1.96,17.21c0,0,2.7-.17,3.9-9.11s3.54-10.4,6.06-11.85,12.78-2.2,13,2.82Z"/><path class="cls-2" d="m42.63,32.66s-4.57-5.79-7.52-5.12.55,3.82,7.52,5.12Z"/><path class="cls-2" d="m9.02,27.97s5.98-4.32,8.63-2.86-1.58,3.52-8.63,2.86Z"/><path class="cls-5" d="m21.28,42.8s-4.85.24-4.49,4.21,3.91,4.1,3.91,4.1"/><path class="cls-5" d="m23.24,60.01s5.2-.19,6.92-3.7"/><rect class="cls-3" x="25.77" y="36.01" width="16.62" height="9.02" transform="translate(5.72 -4.19) rotate(7.69)"/><rect class="cls-3" x="2.97" y="33.11" width="16.62" height="9.02" transform="translate(5.13 -1.17) rotate(7.69)"/><line class="cls-5" x1="19.68" y1="38.84" x2="25.69" y2="39.65"/><line class="cls-5" x1="42.61" y1="39.61" x2="48.67" y2="37.06"/><path class="cls-1" d="m34.49,42.12c2.57,0,2.58-4,0-4s-2.58,4,0,4h0Z"/><path class="cls-1" d="m11.71,39.05c2.57,0,2.58-4,0-4s-2.58,4,0,4h0Z"/></g></svg>