<?xml version="1.0" encoding="UTF-8"?><svg id="Layer_2" xmlns="http://www.w3.org/2000/svg" viewBox="0 0 85.07 84.98"><defs><style>.cls-1,.cls-2{fill:#231f20;}.cls-3{fill:#efb8c5;}.cls-3,.cls-2,.cls-4,.cls-5{stroke-linecap:round;}.cls-3,.cls-2,.cls-4,.cls-5,.cls-6{stroke-linejoin:round;}.cls-3,.cls-2,.cls-5,.cls-6{stroke:#231f20;}.cls-3,.cls-5,.cls-6{stroke-width:2px;}.cls-2,.cls-4{stroke-width:2.08px;}.cls-4{fill:#f1f2f2;stroke:#f1f2f2;}.cls-5{fill:none;}.cls-6{fill:#f89938;}</style></defs><g id="Layer_2-2"><path class="cls-6" d="m62.85,55.44c18.17,24.85,37.04-28.71-.32-15.87"/><path class="cls-6" d="m12.37,31.72s11.65,22.01,3.75,24.41c-38.47,11.64,8.17,47.29,11.92,13.97,3.45-30.65,27.05-12.27,30.87-18.93,4.98-8.67,7.09-20.61-9.44-33.68C33.41,4.81,37.29,1.6,37.29,1.6L12.47,20.64l-.1,11.08Z"/><path class="cls-3" d="m58.47,34.7s5.96,8.45,5.47,14.4-3.3,21.49-11.85,22.04c-8.55.56-22.9-3.64-23.6-7.92-.13-.8.29-1.88,1.07-3.09,8.03-12.57,10.28-27.98,7.28-42.59l-2.95-14.37s19.5,14.02,20.19,18.88c.68,4.86,4.39,12.66,4.39,12.66Z"/><path class="cls-3" d="m20.77,48.18s-6.54.06-6.77,6.59,9.73,6.31,10.88,6.06.15-2.04.15-2.04l-4.45-10.96.19.34Z"/><path class="cls-5" d="m49.01,43.61s2.34-1.91,4.78,1.59-3.38,7.27-3.38,7.27"/><path class="cls-5" d="m44.61,57.53s5.56,3.6,9.68-.52"/><path class="cls-2" d="m11.15,37.15s-3.92,1.03-2.54,4.28c1.38,3.25,1.4,11.41,10.26,6.18,8.86-5.23,42.55-19.22,40.96-25.1s-2.3-11.44-6.2-11S11.15,37.15,11.15,37.15Z"/><path class="cls-2" d="m13.96,42.49s-9.62-12.3-3.46-26.08S37.56-4.79,48.83,6.67c11.27,11.46,5.6,15.95,5.6,15.95L13.96,42.49Z"/><path class="cls-4" d="m46.81,18.28s-5.74,1.55-5.59,5.93,5.16,6.59,10.14.93c0,0-5.96,2.45-6.99-1.39-.64-2.39,2.44-5.47,2.44-5.47Z"/><path class="cls-1" d="m52.34,39.76c2.57,0,2.58-4,0-4s-2.58,4,0,4h0Z"/><path class="cls-1" d="m40.51,44.75c2.57,0,2.58-4,0-4s-2.58,4,0,4h0Z"/></g></svg>